<svg width="360" height="640" viewBox="0 0 360 640" fill="none" xmlns="http://www.w3.org/2000/svg">
<g clip-path="url(#clip0)">
<path fill-rule="evenodd" clip-rule="evenodd" d="M360 0L273.179 0C273.179 0 315.903 33.0836 338.711 69.3476C358.859 101.383 358.82 151.143 345.256 183.161C327.479 225.124 275.364 243.149 296.956 296.365C318.549 349.58 319.54 376.145 287.963 388.815C212.4 419.136 131.872 295.105 73.4679 242.478C42.8368 214.876 3.09263e-06 200 3.09263e-06 200L-2.31061e-06 640L360 640L360 0Z" fill="url(#paint0_linear)"/>
<ellipse cx="93.5" cy="618.3" rx="267.5" ry="250" fill="url(#paint1_linear)"/>
</g>
<defs>
<linearGradient id="paint0_linear" x1="198.564" y1="0.0913291" x2="198.564" y2="577.241" gradientUnits="userSpaceOnUse">
<stop stop-color="#003450"/>
<stop offset="0.536458" stop-color="#4393BE"/>
<stop offset="0.822917" stop-color="#B1D9F0"/>
<stop offset="1" stop-color="white"/>
<stop offset="1" stop-color="white"/>
</linearGradient>
<linearGradient id="paint1_linear" x1="93.5" y1="368.3" x2="99.8775" y2="618.789" gradientUnits="userSpaceOnUse">
<stop stop-color="#6DADD1"/>
<stop offset="0.03125" stop-color="#73B1D4"/>
<stop offset="0.984375" stop-color="#003450"/>
</linearGradient>
<clipPath id="clip0">
<rect width="360" height="640" fill="white"/>
</clipPath>
</defs>
</svg>
