<svg width="640" height="360" viewBox="0 0 640 360" fill="none" xmlns="http://www.w3.org/2000/svg">
<g clip-path="url(#clip0)">
<path fill-rule="evenodd" clip-rule="evenodd" d="M640 0L216.114 0C216.114 0 250.2 25.9926 268.396 54.484C284.47 79.6532 284.439 118.748 273.618 143.903C259.435 176.872 217.858 191.034 235.084 232.844C252.31 274.653 253.101 295.524 227.909 305.479C167.624 329.301 103.379 231.854 56.7835 190.507C32.3458 168.821 -0.0887469 155.741 -0.0887469 155.741L-0.088756 360.057L640 360.057L640 0Z" fill="url(#paint0_linear)"/>
<ellipse cx="554" cy="180" rx="234" ry="245" transform="rotate(-180 554 180)" fill="url(#paint1_linear)"/>
</g>
<defs>
<linearGradient id="paint0_linear" x1="141.055" y1="0.303744" x2="415.864" y2="417.156" gradientUnits="userSpaceOnUse">
<stop stop-color="#003450"/>
<stop offset="0.536458" stop-color="#4393BE"/>
<stop offset="0.822917" stop-color="#B1D9F0"/>
<stop offset="1" stop-color="white"/>
<stop offset="1" stop-color="white"/>
</linearGradient>
<linearGradient id="paint1_linear" x1="747.881" y1="-5.51515" x2="448.302" y2="357.09" gradientUnits="userSpaceOnUse">
<stop offset="0.0233614" stop-color="#F0F8FC"/>
<stop offset="0.0786808" stop-color="#B0D4E7"/>
<stop offset="0.137758" stop-color="#8FC1DC"/>
<stop offset="0.203968" stop-color="#72B1D3"/>
<stop offset="0.290102" stop-color="#5E9BBC"/>
<stop offset="0.467565" stop-color="#417B9B"/>
<stop offset="0.670509" stop-color="#205875"/>
<stop offset="0.888467" stop-color="#063A57"/>
<stop offset="1" stop-color="#003450"/>
</linearGradient>
<clipPath id="clip0">
<rect width="640" height="360" fill="white"/>
</clipPath>
</defs>
</svg>
