<svg width="1440" height="1024" viewBox="0 0 1440 1024" fill="none" xmlns="http://www.w3.org/2000/svg">
<g clip-path="url(#clip0)">
<path fill-rule="evenodd" clip-rule="evenodd" d="M1440 0L512.361 0C512.361 0 593.149 61.6064 636.276 129.135C674.374 188.79 674.301 281.449 648.652 341.071C615.037 419.213 516.492 452.779 557.321 551.874C598.15 650.968 600.025 700.435 540.316 724.03C397.433 780.491 245.161 549.528 134.723 451.528C76.8026 400.13 -0.0721036 369.129 -0.0721036 369.129L-0.0720496 1024L1440 1024V0Z" fill="url(#paint0_linear)"/>
<ellipse cx="1382" cy="512" rx="662" ry="694" transform="rotate(-180 1382 512)" fill="url(#paint1_linear)"/>
</g>
<defs>
<linearGradient id="paint0_linear" x1="334.46" y1="0.720262" x2="985.798" y2="988.721" gradientUnits="userSpaceOnUse">
<stop stop-color="#003450"/>
<stop offset="0.536458" stop-color="#4393BE"/>
<stop offset="0.822917" stop-color="#B1D9F0"/>
<stop offset="1" stop-color="white"/>
<stop offset="1" stop-color="white"/>
</linearGradient>
<linearGradient id="paint1_linear" x1="1930.5" y1="-13.5001" x2="1081.7" y2="1012.58" gradientUnits="userSpaceOnUse">
<stop offset="0.0233614" stop-color="#F0F8FC"/>
<stop offset="0.0786808" stop-color="#B0D4E7"/>
<stop offset="0.137758" stop-color="#8FC1DC"/>
<stop offset="0.203968" stop-color="#72B1D3"/>
<stop offset="0.290102" stop-color="#5E9BBC"/>
<stop offset="0.467565" stop-color="#417B9B"/>
<stop offset="0.670509" stop-color="#205875"/>
<stop offset="0.888467" stop-color="#063A57"/>
<stop offset="1" stop-color="#003450"/>
</linearGradient>
<clipPath id="clip0">
<rect width="1440" height="1024" fill="white"/>
</clipPath>
</defs>
</svg>
