<svg width="77" height="77" viewBox="0 0 77 77" fill="none" xmlns="http://www.w3.org/2000/svg">
<g clip-path="url(#clip0)">
<path d="M29.7413 8.2622C25.8297 11.1728 24.7787 15.7813 24.9712 18.2337C25.2176 21.2329 25.8259 25.1368 25.8259 25.1368C25.8259 25.1368 24.6208 25.7913 24.6208 28.4247C25.0405 35.0351 27.2504 32.1823 27.7047 35.0813C28.7981 42.0652 31.2967 40.8217 31.2967 44.6332C31.2967 50.9818 28.6787 53.9502 20.5052 57.4691C12.3047 61.0034 3.8501 65.4501 3.8501 73.1501V77.0001H73.1501V73.1501C73.1501 65.4501 64.6917 61.0034 56.4873 57.4729C48.3138 53.954 45.7034 50.9895 45.7034 44.637C45.7034 40.8255 48.1944 42.0691 49.2917 35.0852C49.7498 32.1861 51.9558 35.039 52.3832 28.4285C52.3832 25.7951 51.1743 25.1406 51.1743 25.1406C51.1743 25.1406 51.7826 21.2367 52.0251 18.2376C52.2754 15.0921 50.4929 8.3777 43.1702 6.31795C41.8881 5.00895 41.0218 2.9261 44.9642 0.835552C36.3402 0.431302 34.3344 4.9435 29.7413 8.2622Z" fill="#C4C4C4"/>
</g>
<defs>
<clipPath id="clip0">
<rect width="77" height="77" fill="white"/>
</clipPath>
</defs>
</svg>
