<svg width="16" height="17" viewBox="0 0 16 17" fill="none" xmlns="http://www.w3.org/2000/svg">
<path d="M16 8.54919C16 4.12969 12.4165 0.549194 8 0.549194C3.5805 0.549194 0 4.12969 0 8.54919C0 12.5412 2.9245 15.8512 6.75 16.4507V10.8622H4.7185V8.54969H6.75V6.78619C6.75 4.78169 7.9425 3.67469 9.7705 3.67469C10.646 3.67469 11.5625 3.83069 11.5625 3.83069V5.79919H10.552C9.56 5.79919 9.25 6.41669 9.25 7.04919V8.54919H11.4685L11.112 10.8617H9.25V16.4502C13.0725 15.8507 16 12.5407 16 8.54869V8.54919Z" fill="#0099FF"/>
</svg>
