<svg width="16" height="17" viewBox="0 0 16 17" fill="none" xmlns="http://www.w3.org/2000/svg">
<path d="M14.537 7.19437H14V7.16671H7.99998V9.83337H11.7676C11.218 11.3857 9.74098 12.5 7.99998 12.5C5.79098 12.5 3.99998 10.709 3.99998 8.50004C3.99998 6.29104 5.79098 4.50004 7.99998 4.50004C9.01965 4.50004 9.94731 4.88471 10.6536 5.51304L12.5393 3.62737C11.3486 2.51771 9.75598 1.83337 7.99998 1.83337C4.31831 1.83337 1.33331 4.81837 1.33331 8.50004C1.33331 12.1817 4.31831 15.1667 7.99998 15.1667C11.6816 15.1667 14.6666 12.1817 14.6666 8.50004C14.6666 8.05304 14.6206 7.61671 14.537 7.19437Z" fill="#FFC107"/>
<path d="M2.10199 5.39704L4.29232 7.00337C4.88499 5.53604 6.32032 4.50004 7.99999 4.50004C9.01966 4.50004 9.94732 4.88471 10.6537 5.51304L12.5393 3.62737C11.3487 2.51771 9.75599 1.83337 7.99999 1.83337C5.43932 1.83337 3.21866 3.27904 2.10199 5.39704Z" fill="#FF3D00"/>
<path d="M8 15.1667C9.722 15.1667 11.2867 14.5077 12.4697 13.436L10.4063 11.69C9.71452 12.2161 8.86915 12.5007 8 12.5C6.266 12.5 4.79367 11.3943 4.239 9.85132L2.065 11.5263C3.16834 13.6853 5.409 15.1667 8 15.1667Z" fill="#4CAF50"/>
<path d="M14.537 7.19429H14V7.16663H8V9.83329H11.7677C11.5047 10.5721 11.0311 11.2177 10.4053 11.6903L10.4063 11.6896L12.4697 13.4356C12.3237 13.5683 14.6667 11.8333 14.6667 8.49996C14.6667 8.05296 14.6207 7.61663 14.537 7.19429Z" fill="#1976D2"/>
</svg>
