<?xml version="1.0" encoding="UTF-8" standalone="no"?>
<!DOCTYPE svg PUBLIC "-//W3C//DTD SVG 1.1//EN" "http://www.w3.org/Graphics/SVG/1.1/DTD/svg11.dtd">
<svg version="1.1" xmlns="http://www.w3.org/2000/svg" xmlns:xlink="http://www.w3.org/1999/xlink" preserveAspectRatio="xMidYMid meet" viewBox="0 0 915 720" width="915" height="720"><defs><path d="M157.49 428.88C157.49 582.53 157.49 667.89 157.49 684.96C157.49 698.77 168.68 709.96 182.49 709.96C200 709.92 340.07 709.55 357.58 709.51C371.34 709.44 382.46 698.27 382.46 684.51C382.46 669.55 382.46 549.92 382.46 534.96C382.46 521.15 393.65 509.96 407.46 509.96C417.46 509.96 497.46 509.96 507.46 509.96C521.26 509.96 532.46 521.15 532.46 534.96C532.46 549.9 532.46 669.45 532.46 684.4C532.41 698.21 543.57 709.43 557.38 709.48C557.41 709.48 557.43 709.48 557.46 709.48C574.96 709.53 714.99 709.91 732.49 709.96C746.3 709.96 757.49 698.77 757.49 684.96C757.49 667.88 757.49 582.46 757.49 428.71C584.68 286.45 488.67 207.42 469.47 191.62C462.5 185.99 452.54 185.99 445.57 191.62C407.16 223.25 311.13 302.34 157.49 428.88ZM769.99 245.21C769.99 115.36 769.99 43.22 769.99 28.79C769.99 18.43 761.59 10.04 751.24 10.04C742.49 10.04 672.49 10.04 663.74 10.04C653.38 10.04 644.99 18.43 644.99 28.79C644.99 36.35 644.99 74.17 644.99 142.24C561.05 73.19 514.42 34.82 505.1 27.15C477.41 4.37 437.47 4.37 409.79 27.15C370.23 59.72 53.82 320.31 14.27 352.88C6.29 359.48 5.17 371.3 11.76 379.28C11.77 379.28 11.77 379.29 11.77 379.29C15.75 384.13 47.63 422.88 51.61 427.73C58.19 435.72 70.01 436.88 78.01 430.3C78.02 430.29 78.03 430.28 78.04 430.27C114.79 400 408.81 157.83 445.57 127.55C452.54 121.93 462.5 121.93 469.47 127.55C506.23 157.83 800.27 400 837.02 430.27C845 436.88 856.82 435.76 863.42 427.78C863.42 427.78 863.42 427.78 863.43 427.77C867.41 422.93 899.29 384.18 903.27 379.34C909.85 371.34 908.69 359.52 900.69 352.95C900.66 352.92 900.64 352.9 900.61 352.88C883.2 338.53 839.66 302.64 769.99 245.21Z" id="b4zcvai8r6"></path></defs><g><g><g><use xlink:href="#b4zcvai8r6" opacity="1" fill=" #ffffff" fill-opacity="1"></use><g><use xlink:href="#b4zcvai8r6" opacity="1" fill-opacity="0" stroke="#000000" stroke-width="1" stroke-opacity="0"></use></g></g></g></g></svg>