<svg width="283" height="118" viewBox="0 0 283 118" fill="none" xmlns="http://www.w3.org/2000/svg">
<path d="M82.5781 113H80.6934V106.428H73.5254V113H71.6504V98.7812H73.5254V104.895H80.6934V98.7812H82.5781V113ZM92.1484 113C92.0443 112.792 91.9596 112.421 91.8945 111.887C91.0547 112.759 90.0521 113.195 88.8867 113.195C87.8451 113.195 86.9889 112.902 86.3184 112.316C85.6543 111.724 85.3223 110.975 85.3223 110.07C85.3223 108.97 85.7389 108.117 86.5723 107.512C87.4121 106.9 88.5905 106.594 90.1074 106.594H91.8652V105.764C91.8652 105.132 91.6764 104.631 91.2988 104.26C90.9212 103.882 90.3646 103.693 89.6289 103.693C88.9844 103.693 88.444 103.856 88.0078 104.182C87.5716 104.507 87.3535 104.901 87.3535 105.363H85.5371C85.5371 104.836 85.7227 104.328 86.0938 103.84C86.4714 103.345 86.9792 102.954 87.6172 102.668C88.2617 102.382 88.9681 102.238 89.7363 102.238C90.9538 102.238 91.9076 102.544 92.5977 103.156C93.2878 103.762 93.6458 104.598 93.6719 105.666V110.529C93.6719 111.499 93.7956 112.271 94.043 112.844V113H92.1484ZM89.1504 111.623C89.7168 111.623 90.2539 111.477 90.7617 111.184C91.2695 110.891 91.6374 110.51 91.8652 110.041V107.873H90.4492C88.2357 107.873 87.1289 108.521 87.1289 109.816C87.1289 110.383 87.3177 110.826 87.6953 111.145C88.0729 111.464 88.5579 111.623 89.1504 111.623ZM98.2031 111.525H104.385V113H95.9961V111.672L101.826 103.928H96.084V102.434H104.092V103.713L98.2031 111.525ZM108.389 113H106.582V98H108.389V113ZM110.811 107.619C110.811 106.584 111.012 105.653 111.416 104.826C111.826 103.999 112.393 103.361 113.115 102.912C113.844 102.463 114.674 102.238 115.605 102.238C117.044 102.238 118.206 102.736 119.092 103.732C119.984 104.729 120.43 106.053 120.43 107.707V107.834C120.43 108.863 120.231 109.787 119.834 110.607C119.443 111.421 118.88 112.056 118.145 112.512C117.415 112.967 116.576 113.195 115.625 113.195C114.193 113.195 113.031 112.697 112.139 111.701C111.253 110.705 110.811 109.387 110.811 107.746V107.619ZM112.627 107.834C112.627 109.006 112.897 109.947 113.438 110.656C113.984 111.366 114.714 111.721 115.625 111.721C116.543 111.721 117.272 111.363 117.812 110.646C118.353 109.924 118.623 108.915 118.623 107.619C118.623 106.46 118.346 105.523 117.793 104.807C117.246 104.084 116.517 103.723 115.605 103.723C114.714 103.723 113.994 104.077 113.447 104.787C112.9 105.497 112.627 106.512 112.627 107.834ZM133.809 110.197C133.809 109.709 133.623 109.331 133.252 109.064C132.887 108.791 132.246 108.557 131.328 108.361C130.417 108.166 129.691 107.932 129.15 107.658C128.617 107.385 128.219 107.059 127.959 106.682C127.705 106.304 127.578 105.855 127.578 105.334C127.578 104.468 127.943 103.736 128.672 103.137C129.408 102.538 130.345 102.238 131.484 102.238C132.682 102.238 133.652 102.548 134.395 103.166C135.143 103.785 135.518 104.576 135.518 105.539H133.701C133.701 105.044 133.49 104.618 133.066 104.26C132.65 103.902 132.122 103.723 131.484 103.723C130.827 103.723 130.312 103.866 129.941 104.152C129.57 104.439 129.385 104.813 129.385 105.275C129.385 105.712 129.557 106.04 129.902 106.262C130.247 106.483 130.869 106.695 131.768 106.896C132.673 107.098 133.405 107.339 133.965 107.619C134.525 107.899 134.938 108.238 135.205 108.635C135.479 109.025 135.615 109.504 135.615 110.07C135.615 111.014 135.238 111.773 134.482 112.346C133.727 112.912 132.747 113.195 131.543 113.195C130.697 113.195 129.948 113.046 129.297 112.746C128.646 112.447 128.135 112.03 127.764 111.496C127.399 110.956 127.217 110.373 127.217 109.748H129.023C129.056 110.354 129.297 110.835 129.746 111.193C130.202 111.545 130.801 111.721 131.543 111.721C132.227 111.721 132.773 111.584 133.184 111.311C133.6 111.031 133.809 110.66 133.809 110.197ZM139.932 113H138.125V102.434H139.932V113ZM137.979 99.6309C137.979 99.3379 138.066 99.0905 138.242 98.8887C138.424 98.6868 138.691 98.5859 139.043 98.5859C139.395 98.5859 139.661 98.6868 139.844 98.8887C140.026 99.0905 140.117 99.3379 140.117 99.6309C140.117 99.9238 140.026 100.168 139.844 100.363C139.661 100.559 139.395 100.656 139.043 100.656C138.691 100.656 138.424 100.559 138.242 100.363C138.066 100.168 137.979 99.9238 137.979 99.6309ZM144.531 102.434L144.58 103.605C145.355 102.694 146.4 102.238 147.715 102.238C149.193 102.238 150.199 102.805 150.732 103.938C151.084 103.43 151.54 103.02 152.1 102.707C152.666 102.395 153.333 102.238 154.102 102.238C156.419 102.238 157.598 103.465 157.637 105.92V113H155.83V106.027C155.83 105.272 155.658 104.709 155.312 104.338C154.967 103.96 154.388 103.771 153.574 103.771C152.904 103.771 152.347 103.973 151.904 104.377C151.462 104.774 151.204 105.311 151.133 105.988V113H149.316V106.076C149.316 104.54 148.564 103.771 147.061 103.771C145.876 103.771 145.065 104.276 144.629 105.285V113H142.822V102.434H144.531ZM169.297 107.834C169.297 109.442 168.929 110.738 168.193 111.721C167.458 112.704 166.462 113.195 165.205 113.195C163.923 113.195 162.913 112.788 162.178 111.975V117.062H160.371V102.434H162.021L162.109 103.605C162.845 102.694 163.867 102.238 165.176 102.238C166.445 102.238 167.448 102.717 168.184 103.674C168.926 104.631 169.297 105.962 169.297 107.668V107.834ZM167.49 107.629C167.49 106.438 167.236 105.497 166.729 104.807C166.221 104.117 165.524 103.771 164.639 103.771C163.545 103.771 162.725 104.257 162.178 105.227V110.275C162.718 111.239 163.545 111.721 164.658 111.721C165.524 111.721 166.211 111.379 166.719 110.695C167.233 110.005 167.49 108.983 167.49 107.629ZM173.564 113H171.758V98H173.564V113ZM180.85 113.195C179.417 113.195 178.252 112.727 177.354 111.789C176.455 110.845 176.006 109.585 176.006 108.01V107.678C176.006 106.63 176.204 105.695 176.602 104.875C177.005 104.048 177.565 103.404 178.281 102.941C179.004 102.473 179.785 102.238 180.625 102.238C181.999 102.238 183.066 102.691 183.828 103.596C184.59 104.501 184.971 105.796 184.971 107.482V108.234H177.812C177.839 109.276 178.141 110.119 178.721 110.764C179.307 111.402 180.049 111.721 180.947 111.721C181.585 111.721 182.126 111.59 182.568 111.33C183.011 111.07 183.398 110.725 183.73 110.295L184.834 111.154C183.949 112.515 182.62 113.195 180.85 113.195ZM180.625 103.723C179.896 103.723 179.284 103.99 178.789 104.523C178.294 105.051 177.988 105.793 177.871 106.75H183.164V106.613C183.112 105.695 182.865 104.986 182.422 104.484C181.979 103.977 181.38 103.723 180.625 103.723Z" fill="#003450"/>
<path d="M43.7031 24.6095C38.1191 32.3914 26.8942 49.9716 26.8942 49.9716L0 49.9716C0 49.9716 14.1309 28.2448 21.1393 18.3613C22.9057 15.9188 24.5011 13.4479 26.5524 11.0622C28.8885 8.27889 31.5095 5.55239 34.9853 3.0815C36.4081 1.97297 38.3935 1.07157 40.7402 0.468606C41.9461 0.18599 43.2541 0.0277312 44.5857 0.0033289C45.9173 -0.0210734 47.2451 0.088884 48.4894 0.326601C51.3953 0.894622 53.7884 1.97386 55.6688 3.19511C59.0305 5.41039 61.0818 8.05168 62.6202 10.693C68.0086 18.7842 70.5718 27.2762 70.1985 35.7995C70.0845 39.9176 69.1159 46.0239 67.6914 50L43.7601 50C43.7601 50 45.1846 46.8759 50.8825 38.2704C51.7372 36.9639 52.7628 35.6575 53.3326 34.2942C54.1752 32.2765 54.5953 30.2206 54.5862 28.1596C54.4152 26.3135 54.1873 24.4107 52.8198 22.6782C52.25 22.0534 51.5663 21.3718 50.1988 21.1162C49.0592 20.8889 47.9196 21.2014 47.1219 21.599C45.4695 22.3942 44.5578 23.5302 43.7031 24.6095Z" fill="#003450"/>
<path d="M43.6587 88.3905C49.2427 80.6086 60.4676 63.0284 60.4676 63.0284H87.3618C87.3618 63.0284 73.2309 84.7552 66.2225 94.6387C64.4561 97.0812 62.8607 99.5521 60.8095 101.938C58.4733 104.721 55.8523 107.448 52.3765 109.918C50.9537 111.027 48.9684 111.928 46.6216 112.531C45.4157 112.814 44.1077 112.972 42.7761 112.997C41.4445 113.021 40.1167 112.911 38.8724 112.673C35.9665 112.105 33.5734 111.026 31.693 109.805C28.3313 107.59 26.28 104.948 24.7416 102.307C19.3532 94.2158 16.79 85.7238 17.1633 77.2005C17.2773 73.0824 18.2459 66.9761 19.6704 63H43.6017C43.6017 63 42.1772 66.1241 36.4793 74.7296C35.6246 76.0361 34.599 77.3425 34.0292 78.7058C33.1866 80.7235 32.7666 82.7794 32.7757 84.8404C32.9466 86.6865 33.1745 88.5893 34.542 90.3218C35.1118 90.9466 35.7955 91.6282 37.163 91.8838C38.3026 92.1111 39.4422 91.7986 40.2399 91.401C41.8923 90.6058 42.804 89.4698 43.6587 88.3905Z" fill="#003450"/>
<path d="M109.369 56.3864C104.545 54.9996 101.029 53.3004 98.8223 51.2887C96.6348 49.2574 95.541 46.7574 95.541 43.7887C95.541 40.4293 96.8789 37.6559 99.5547 35.4684C102.25 33.2614 105.746 32.1578 110.043 32.1578C112.973 32.1578 115.58 32.7242 117.865 33.8571C120.17 34.9899 121.947 36.5524 123.197 38.5446C124.467 40.5367 125.102 42.7145 125.102 45.0778H119.447C119.447 42.4996 118.627 40.4781 116.986 39.0133C115.346 37.5289 113.031 36.7867 110.043 36.7867C107.27 36.7867 105.102 37.402 103.539 38.6324C101.996 39.8434 101.225 41.5328 101.225 43.7008C101.225 45.4391 101.957 46.9137 103.422 48.1246C104.906 49.316 107.416 50.4098 110.951 51.4059C114.506 52.402 117.279 53.5055 119.271 54.7164C121.283 55.9078 122.768 57.3043 123.725 58.9059C124.701 60.5074 125.189 62.3922 125.189 64.5602C125.189 68.0172 123.842 70.7906 121.146 72.8805C118.451 74.9508 114.848 75.986 110.336 75.986C107.406 75.986 104.672 75.4293 102.133 74.316C99.5938 73.1832 97.6309 71.6403 96.2441 69.6871C94.877 67.734 94.1934 65.5172 94.1934 63.0367H99.8477C99.8477 65.6149 100.795 67.6559 102.689 69.1598C104.604 70.6442 107.152 71.3864 110.336 71.3864C113.305 71.3864 115.58 70.7809 117.162 69.5699C118.744 68.359 119.535 66.7086 119.535 64.6188C119.535 62.5289 118.803 60.9176 117.338 59.7848C115.873 58.6324 113.217 57.4996 109.369 56.3864ZM159.643 67.9293L165.736 43.7008H171.156L161.928 75.4H157.533L149.828 51.3766L142.328 75.4H137.934L128.734 43.7008H134.125L140.365 67.4313L147.748 43.7008H152.113L159.643 67.9293ZM175.258 59.2574C175.258 56.152 175.863 53.359 177.074 50.8785C178.305 48.3981 180.004 46.484 182.172 45.1364C184.359 43.7887 186.85 43.1149 189.643 43.1149C193.959 43.1149 197.445 44.609 200.102 47.5973C202.777 50.5856 204.115 54.5602 204.115 59.5211V59.902C204.115 62.9879 203.52 65.7614 202.328 68.2223C201.156 70.6637 199.467 72.568 197.26 73.9352C195.072 75.3024 192.553 75.986 189.701 75.986C185.404 75.986 181.918 74.4918 179.242 71.5035C176.586 68.5153 175.258 64.5602 175.258 59.6383V59.2574ZM180.707 59.902C180.707 63.4176 181.518 66.2399 183.139 68.3688C184.779 70.4977 186.967 71.5621 189.701 71.5621C192.455 71.5621 194.643 70.4879 196.264 68.3395C197.885 66.1715 198.695 63.1442 198.695 59.2574C198.695 55.7809 197.865 52.9684 196.205 50.8199C194.564 48.652 192.377 47.568 189.643 47.568C186.967 47.568 184.809 48.6324 183.168 50.7614C181.527 52.8903 180.707 55.9371 180.707 59.902ZM209.477 59.2574C209.477 56.152 210.082 53.359 211.293 50.8785C212.523 48.3981 214.223 46.484 216.391 45.1364C218.578 43.7887 221.068 43.1149 223.861 43.1149C228.178 43.1149 231.664 44.609 234.32 47.5973C236.996 50.5856 238.334 54.5602 238.334 59.5211V59.902C238.334 62.9879 237.738 65.7614 236.547 68.2223C235.375 70.6637 233.686 72.568 231.479 73.9352C229.291 75.3024 226.771 75.986 223.92 75.986C219.623 75.986 216.137 74.4918 213.461 71.5035C210.805 68.5153 209.477 64.5602 209.477 59.6383V59.2574ZM214.926 59.902C214.926 63.4176 215.736 66.2399 217.357 68.3688C218.998 70.4977 221.186 71.5621 223.92 71.5621C226.674 71.5621 228.861 70.4879 230.482 68.3395C232.104 66.1715 232.914 63.1442 232.914 59.2574C232.914 55.7809 232.084 52.9684 230.424 50.8199C228.783 48.652 226.596 47.568 223.861 47.568C221.186 47.568 219.027 48.6324 217.387 50.7614C215.746 52.8903 214.926 55.9371 214.926 59.902ZM264.701 72.2653C262.592 74.7457 259.496 75.986 255.414 75.986C252.035 75.986 249.457 75.0094 247.68 73.0563C245.922 71.0836 245.033 68.1735 245.014 64.3258V43.7008H250.434V64.1793C250.434 68.984 252.387 71.3864 256.293 71.3864C260.434 71.3864 263.188 69.8434 264.555 66.7574V43.7008H269.975V75.4H264.818L264.701 72.2653Z" fill="#003450"/>
</svg>
