<svg width="276" height="115" viewBox="0 0 276 115" fill="none" xmlns="http://www.w3.org/2000/svg">
<g clip-path="url(#clip0)">
<path d="M46.7031 25.6095C41.1191 33.3914 29.8942 50.9716 29.8942 50.9716L3 50.9716C3 50.9716 17.1309 29.2448 24.1393 19.3613C25.9057 16.9188 27.5011 14.4479 29.5524 12.0622C31.8885 9.27889 34.5095 6.55239 37.9853 4.0815C39.4081 2.97297 41.3935 2.07157 43.7402 1.46861C44.9461 1.18599 46.2541 1.02773 47.5857 1.00333C48.9173 0.978927 50.2451 1.08888 51.4894 1.3266C54.3953 1.89462 56.7884 2.97386 58.6688 4.19511C62.0305 6.41039 64.0818 9.05168 65.6202 11.693C71.0086 19.7842 73.5718 28.2762 73.1985 36.7995C73.0845 40.9176 72.1159 47.0239 70.6914 51L46.7601 51C46.7601 51 48.1846 47.8759 53.8825 39.2704C54.7372 37.9639 55.7628 36.6575 56.3326 35.2942C57.1752 33.2765 57.5953 31.2206 57.5862 29.1596C57.4152 27.3135 57.1873 25.4107 55.8198 23.6782C55.25 23.0534 54.5663 22.3718 53.1988 22.1162C52.0592 21.8889 50.9196 22.2014 50.1219 22.599C48.4695 23.3942 47.5578 24.5302 46.7031 25.6095Z" fill="#003450"/>
<path d="M46.6586 89.3905C52.2426 81.6086 63.4675 64.0284 63.4675 64.0284H90.3617C90.3617 64.0284 76.2308 85.7552 69.2224 95.6387C67.456 98.0812 65.8606 100.552 63.8093 102.938C61.4732 105.721 58.8521 108.448 55.3764 110.918C53.9536 112.027 51.9682 112.928 49.6215 113.531C48.4156 113.814 47.1076 113.972 45.776 113.997C44.4444 114.021 43.1166 113.911 41.8723 113.673C38.9664 113.105 36.5732 112.026 34.6929 110.805C31.3311 108.59 29.2799 105.948 27.7414 103.307C22.3531 95.2158 19.7899 86.7238 20.1632 78.2005C20.2772 74.0824 21.2458 67.9761 22.6703 64H46.6016C46.6016 64 45.1771 67.1241 39.4792 75.7296C38.6245 77.0361 37.5989 78.3425 37.0291 79.7058C36.1865 81.7235 35.7664 83.7794 35.7755 85.8404C35.9465 87.6865 36.1744 89.5893 37.5419 91.3218C38.1117 91.9466 38.7954 92.6282 40.1629 92.8838C41.3025 93.1111 42.4421 92.7986 43.2398 92.401C44.8922 91.6058 45.8039 90.4698 46.6586 89.3905Z" fill="#003450"/>
<path d="M112.369 57.3864C107.545 55.9996 104.03 54.3004 101.823 52.2887C99.635 50.2574 98.5413 47.7574 98.5413 44.7887C98.5413 41.4293 99.8792 38.6559 102.555 36.4684C105.25 34.2614 108.746 33.1578 113.043 33.1578C115.973 33.1578 118.58 33.7242 120.865 34.8571C123.17 35.9899 124.948 37.5524 126.198 39.5446C127.467 41.5367 128.102 43.7145 128.102 46.0778H122.448C122.448 43.4996 121.627 41.4781 119.987 40.0133C118.346 38.5289 116.031 37.7867 113.043 37.7867C110.27 37.7867 108.102 38.402 106.539 39.6324C104.996 40.8434 104.225 42.5328 104.225 44.7008C104.225 46.4391 104.957 47.9137 106.422 49.1246C107.906 50.316 110.416 51.4098 113.951 52.4059C117.506 53.402 120.28 54.5055 122.272 55.7164C124.283 56.9078 125.768 58.3043 126.725 59.9059C127.701 61.5074 128.19 63.3922 128.19 65.5602C128.19 69.0172 126.842 71.7906 124.147 73.8805C121.451 75.9508 117.848 76.986 113.336 76.986C110.406 76.986 107.672 76.4293 105.133 75.316C102.594 74.1832 100.631 72.6403 99.2444 70.6871C97.8772 68.734 97.1936 66.5172 97.1936 64.0367H102.848C102.848 66.6149 103.795 68.6559 105.69 70.1598C107.604 71.6442 110.153 72.3864 113.336 72.3864C116.305 72.3864 118.58 71.7809 120.162 70.5699C121.744 69.359 122.535 67.7086 122.535 65.6188C122.535 63.5289 121.803 61.9176 120.338 60.7848C118.873 59.6324 116.217 58.4996 112.369 57.3864ZM162.643 68.9293L168.737 44.7008H174.156L164.928 76.4H160.533L152.828 52.3766L145.328 76.4H140.934L131.735 44.7008H137.125L143.365 68.4313L150.748 44.7008H155.114L162.643 68.9293ZM178.258 60.2574C178.258 57.152 178.864 54.359 180.074 51.8785C181.305 49.3981 183.004 47.484 185.172 46.1364C187.36 44.7887 189.85 44.1149 192.643 44.1149C196.959 44.1149 200.446 45.609 203.102 48.5973C205.778 51.5856 207.115 55.5602 207.115 60.5211V60.902C207.115 63.9879 206.52 66.7614 205.328 69.2223C204.156 71.6637 202.467 73.568 200.26 74.9352C198.073 76.3024 195.553 76.986 192.701 76.986C188.405 76.986 184.918 75.4918 182.242 72.5035C179.586 69.5153 178.258 65.5602 178.258 60.6383V60.2574ZM183.707 60.902C183.707 64.4176 184.518 67.2399 186.139 69.3688C187.78 71.4977 189.967 72.5621 192.701 72.5621C195.455 72.5621 197.643 71.4879 199.264 69.3395C200.885 67.1715 201.696 64.1442 201.696 60.2574C201.696 56.7809 200.865 53.9684 199.205 51.8199C197.565 49.652 195.377 48.568 192.643 48.568C189.967 48.568 187.809 49.6324 186.168 51.7614C184.528 53.8903 183.707 56.9371 183.707 60.902ZM212.477 60.2574C212.477 57.152 213.082 54.359 214.293 51.8785C215.524 49.3981 217.223 47.484 219.391 46.1364C221.578 44.7887 224.069 44.1149 226.862 44.1149C231.178 44.1149 234.664 45.609 237.321 48.5973C239.996 51.5856 241.334 55.5602 241.334 60.5211V60.902C241.334 63.9879 240.739 66.7614 239.547 69.2223C238.375 71.6637 236.686 73.568 234.479 74.9352C232.291 76.3024 229.772 76.986 226.92 76.986C222.623 76.986 219.137 75.4918 216.461 72.5035C213.805 69.5153 212.477 65.5602 212.477 60.6383V60.2574ZM217.926 60.902C217.926 64.4176 218.737 67.2399 220.358 69.3688C221.998 71.4977 224.186 72.5621 226.92 72.5621C229.674 72.5621 231.862 71.4879 233.483 69.3395C235.104 67.1715 235.914 64.1442 235.914 60.2574C235.914 56.7809 235.084 53.9684 233.424 51.8199C231.783 49.652 229.596 48.568 226.862 48.568C224.186 48.568 222.028 49.6324 220.387 51.7614C218.746 53.8903 217.926 56.9371 217.926 60.902ZM267.701 73.2653C265.592 75.7457 262.496 76.986 258.414 76.986C255.035 76.986 252.457 76.0094 250.68 74.0563C248.922 72.0836 248.033 69.1735 248.014 65.3258V44.7008H253.434V65.1793C253.434 69.984 255.387 72.3864 259.293 72.3864C263.434 72.3864 266.188 70.8434 267.555 67.7574V44.7008H272.975V76.4H267.819L267.701 73.2653Z" fill="#003450"/>
</g>
<defs>
<clipPath id="clip0">
<rect width="276" height="115" fill="white"/>
</clipPath>
</defs>
</svg>
