<svg width="1115" height="421" viewBox="0 0 1115 421" fill="none" xmlns="http://www.w3.org/2000/svg">
<path d="M353.225 354.181H359.58L375.793 394.525L391.971 354.181H398.361L378.24 403.668H373.278L353.225 354.181ZM351.151 354.181H356.759L357.677 384.363V403.668H351.151V354.181ZM394.792 354.181H400.4V403.668H393.874V384.363L394.792 354.181ZM432.655 397.38V378.449C432.655 376.999 432.36 375.741 431.771 374.676C431.205 373.589 430.344 372.75 429.188 372.161C428.033 371.572 426.605 371.277 424.906 371.277C423.32 371.277 421.926 371.549 420.725 372.093C419.547 372.637 418.618 373.351 417.938 374.234C417.281 375.118 416.952 376.07 416.952 377.089H410.665C410.665 375.775 411.005 374.472 411.684 373.181C412.364 371.889 413.338 370.722 414.607 369.68C415.899 368.615 417.44 367.777 419.23 367.165C421.042 366.53 423.059 366.213 425.28 366.213C427.953 366.213 430.31 366.666 432.349 367.573C434.411 368.479 436.02 369.85 437.175 371.685C438.354 373.498 438.943 375.775 438.943 378.517V395.647C438.943 396.871 439.045 398.173 439.249 399.556C439.475 400.938 439.804 402.127 440.234 403.124V403.668H433.675C433.357 402.943 433.108 401.98 432.927 400.779C432.746 399.556 432.655 398.423 432.655 397.38ZM433.743 381.372L433.811 385.79H427.455C425.665 385.79 424.067 385.938 422.663 386.232C421.258 386.504 420.079 386.923 419.128 387.49C418.176 388.056 417.451 388.77 416.952 389.631C416.454 390.469 416.205 391.455 416.205 392.588C416.205 393.744 416.465 394.797 416.986 395.749C417.508 396.701 418.289 397.46 419.332 398.026C420.397 398.57 421.7 398.842 423.24 398.842C425.166 398.842 426.866 398.434 428.339 397.618C429.811 396.803 430.978 395.806 431.839 394.627C432.723 393.449 433.199 392.305 433.267 391.195L435.952 394.219C435.793 395.171 435.363 396.225 434.66 397.38C433.958 398.536 433.018 399.646 431.839 400.711C430.684 401.754 429.302 402.626 427.693 403.328C426.107 404.008 424.317 404.348 422.323 404.348C419.83 404.348 417.644 403.861 415.763 402.886C413.905 401.912 412.455 400.609 411.412 398.978C410.393 397.324 409.883 395.477 409.883 393.438C409.883 391.466 410.268 389.733 411.039 388.238C411.809 386.719 412.919 385.462 414.369 384.465C415.82 383.445 417.564 382.675 419.604 382.154C421.643 381.632 423.92 381.372 426.435 381.372H433.743ZM464.23 366.893V371.719H444.347V366.893H464.23ZM451.077 357.954H457.365V394.559C457.365 395.806 457.557 396.746 457.942 397.38C458.328 398.015 458.826 398.434 459.438 398.638C460.05 398.842 460.707 398.944 461.409 398.944C461.93 398.944 462.474 398.899 463.041 398.808C463.63 398.695 464.072 398.604 464.366 398.536L464.4 403.668C463.902 403.827 463.244 403.974 462.429 404.11C461.636 404.269 460.673 404.348 459.54 404.348C457.999 404.348 456.583 404.042 455.291 403.43C454 402.819 452.969 401.799 452.198 400.371C451.451 398.921 451.077 396.973 451.077 394.525V357.954ZM477.893 351.462V403.668H471.606V351.462H477.893ZM476.398 383.887L473.781 383.785C473.803 381.27 474.177 378.947 474.902 376.817C475.628 374.665 476.647 372.796 477.961 371.209C479.276 369.623 480.839 368.4 482.652 367.539C484.487 366.655 486.515 366.213 488.736 366.213C490.548 366.213 492.18 366.462 493.63 366.961C495.08 367.437 496.315 368.207 497.335 369.272C498.377 370.337 499.17 371.719 499.714 373.419C500.258 375.095 500.53 377.146 500.53 379.571V403.668H494.208V379.503C494.208 377.577 493.925 376.036 493.358 374.88C492.792 373.702 491.965 372.852 490.877 372.331C489.789 371.787 488.452 371.515 486.866 371.515C485.303 371.515 483.875 371.844 482.584 372.501C481.315 373.158 480.216 374.064 479.287 375.22C478.381 376.376 477.667 377.701 477.146 379.197C476.647 380.669 476.398 382.233 476.398 383.887ZM525.205 404.348C522.645 404.348 520.322 403.917 518.237 403.056C516.176 402.173 514.397 400.938 512.901 399.352C511.428 397.766 510.296 395.885 509.502 393.71C508.709 391.534 508.313 389.155 508.313 386.572V385.145C508.313 382.154 508.755 379.491 509.638 377.157C510.522 374.801 511.723 372.807 513.241 371.175C514.759 369.544 516.481 368.309 518.407 367.471C520.333 366.632 522.327 366.213 524.389 366.213C527.018 366.213 529.284 366.666 531.187 367.573C533.113 368.479 534.688 369.748 535.911 371.379C537.135 372.988 538.041 374.891 538.63 377.089C539.22 379.265 539.514 381.644 539.514 384.227V387.048H512.052V381.916H533.226V381.44C533.136 379.808 532.796 378.222 532.207 376.682C531.64 375.141 530.734 373.872 529.488 372.875C528.241 371.878 526.542 371.379 524.389 371.379C522.962 371.379 521.648 371.685 520.447 372.297C519.246 372.886 518.215 373.77 517.354 374.948C516.493 376.126 515.824 377.565 515.348 379.265C514.873 380.964 514.635 382.924 514.635 385.145V386.572C514.635 388.317 514.873 389.96 515.348 391.5C515.847 393.019 516.561 394.355 517.49 395.511C518.441 396.667 519.586 397.573 520.923 398.23C522.282 398.887 523.823 399.216 525.545 399.216C527.766 399.216 529.646 398.763 531.187 397.856C532.728 396.95 534.076 395.738 535.232 394.219L539.038 397.244C538.245 398.445 537.237 399.59 536.013 400.677C534.79 401.765 533.283 402.649 531.493 403.328C529.725 404.008 527.63 404.348 525.205 404.348ZM553.109 374.2V403.668H546.788V366.893H552.77L553.109 374.2ZM551.818 383.887L548.895 383.785C548.918 381.27 549.246 378.947 549.881 376.817C550.515 374.665 551.455 372.796 552.702 371.209C553.948 369.623 555.5 368.4 557.358 367.539C559.216 366.655 561.369 366.213 563.816 366.213C565.538 366.213 567.124 366.462 568.574 366.961C570.024 367.437 571.282 368.196 572.347 369.238C573.412 370.28 574.239 371.617 574.828 373.249C575.417 374.88 575.712 376.851 575.712 379.163V403.668H569.424V379.469C569.424 377.543 569.095 376.002 568.438 374.846C567.804 373.691 566.897 372.852 565.719 372.331C564.541 371.787 563.159 371.515 561.572 371.515C559.714 371.515 558.162 371.844 556.916 372.501C555.67 373.158 554.673 374.064 553.925 375.22C553.177 376.376 552.634 377.701 552.294 379.197C551.976 380.669 551.818 382.233 551.818 383.887ZM575.644 380.42L571.429 381.712C571.452 379.695 571.78 377.758 572.415 375.9C573.072 374.042 574.012 372.388 575.236 370.938C576.482 369.487 578.011 368.343 579.824 367.505C581.637 366.644 583.71 366.213 586.044 366.213C588.015 366.213 589.76 366.474 591.278 366.995C592.819 367.516 594.111 368.32 595.153 369.408C596.218 370.473 597.022 371.844 597.566 373.521C598.11 375.197 598.382 377.191 598.382 379.503V403.668H592.06V379.435C592.06 377.373 591.731 375.775 591.074 374.642C590.44 373.487 589.533 372.682 588.355 372.229C587.2 371.753 585.817 371.515 584.209 371.515C582.826 371.515 581.603 371.753 580.538 372.229C579.473 372.705 578.578 373.362 577.853 374.2C577.128 375.016 576.573 375.956 576.187 377.021C575.825 378.086 575.644 379.219 575.644 380.42ZM629.583 397.38V378.449C629.583 376.999 629.288 375.741 628.699 374.676C628.133 373.589 627.272 372.75 626.116 372.161C624.961 371.572 623.533 371.277 621.834 371.277C620.248 371.277 618.854 371.549 617.653 372.093C616.475 372.637 615.546 373.351 614.866 374.234C614.209 375.118 613.88 376.07 613.88 377.089H607.593C607.593 375.775 607.932 374.472 608.612 373.181C609.292 371.889 610.266 370.722 611.535 369.68C612.827 368.615 614.368 367.777 616.158 367.165C617.97 366.53 619.987 366.213 622.208 366.213C624.881 366.213 627.238 366.666 629.277 367.573C631.339 368.479 632.948 369.85 634.103 371.685C635.282 373.498 635.871 375.775 635.871 378.517V395.647C635.871 396.871 635.973 398.173 636.177 399.556C636.403 400.938 636.732 402.127 637.162 403.124V403.668H630.603C630.285 402.943 630.036 401.98 629.855 400.779C629.674 399.556 629.583 398.423 629.583 397.38ZM630.671 381.372L630.739 385.79H624.383C622.593 385.79 620.995 385.938 619.59 386.232C618.186 386.504 617.007 386.923 616.056 387.49C615.104 388.056 614.379 388.77 613.88 389.631C613.382 390.469 613.133 391.455 613.133 392.588C613.133 393.744 613.393 394.797 613.914 395.749C614.436 396.701 615.217 397.46 616.26 398.026C617.325 398.57 618.627 398.842 620.168 398.842C622.094 398.842 623.794 398.434 625.266 397.618C626.739 396.803 627.906 395.806 628.767 394.627C629.651 393.449 630.127 392.305 630.195 391.195L632.88 394.219C632.721 395.171 632.291 396.225 631.588 397.38C630.886 398.536 629.946 399.646 628.767 400.711C627.612 401.754 626.229 402.626 624.621 403.328C623.035 404.008 621.245 404.348 619.251 404.348C616.758 404.348 614.572 403.861 612.691 402.886C610.833 401.912 609.383 400.609 608.34 398.978C607.321 397.324 606.811 395.477 606.811 393.438C606.811 391.466 607.196 389.733 607.966 388.238C608.737 386.719 609.847 385.462 611.297 384.465C612.747 383.445 614.492 382.675 616.531 382.154C618.571 381.632 620.848 381.372 623.363 381.372H630.671ZM661.158 366.893V371.719H641.275V366.893H661.158ZM648.005 357.954H654.292V394.559C654.292 395.806 654.485 396.746 654.87 397.38C655.255 398.015 655.754 398.434 656.366 398.638C656.977 398.842 657.635 398.944 658.337 398.944C658.858 398.944 659.402 398.899 659.968 398.808C660.558 398.695 660.999 398.604 661.294 398.536L661.328 403.668C660.829 403.827 660.172 403.974 659.357 404.11C658.564 404.269 657.601 404.348 656.468 404.348C654.927 404.348 653.511 404.042 652.219 403.43C650.928 402.819 649.897 401.799 649.126 400.371C648.378 398.921 648.005 396.973 648.005 394.525V357.954ZM675.365 366.893V403.668H669.043V366.893H675.365ZM668.567 357.138C668.567 356.119 668.873 355.258 669.485 354.555C670.12 353.853 671.049 353.502 672.272 353.502C673.473 353.502 674.391 353.853 675.025 354.555C675.682 355.258 676.011 356.119 676.011 357.138C676.011 358.113 675.682 358.951 675.025 359.653C674.391 360.333 673.473 360.673 672.272 360.673C671.049 360.673 670.12 360.333 669.485 359.653C668.873 358.951 668.567 358.113 668.567 357.138ZM700.177 399.182C701.672 399.182 703.054 398.876 704.323 398.264C705.592 397.652 706.634 396.814 707.45 395.749C708.266 394.661 708.73 393.426 708.844 392.044H714.825C714.712 394.219 713.976 396.247 712.616 398.128C711.279 399.986 709.523 401.493 707.348 402.649C705.173 403.782 702.782 404.348 700.177 404.348C697.412 404.348 694.999 403.861 692.937 402.886C690.898 401.912 689.198 400.575 687.839 398.876C686.502 397.176 685.494 395.228 684.814 393.03C684.157 390.809 683.828 388.464 683.828 385.994V384.567C683.828 382.097 684.157 379.763 684.814 377.565C685.494 375.345 686.502 373.385 687.839 371.685C689.198 369.986 690.898 368.649 692.937 367.675C694.999 366.7 697.412 366.213 700.177 366.213C703.054 366.213 705.569 366.802 707.722 367.981C709.875 369.136 711.563 370.722 712.786 372.739C714.032 374.733 714.712 376.999 714.825 379.537H708.844C708.73 378.018 708.3 376.648 707.552 375.424C706.827 374.2 705.83 373.226 704.561 372.501C703.315 371.753 701.853 371.379 700.177 371.379C698.251 371.379 696.63 371.765 695.316 372.535C694.025 373.283 692.994 374.302 692.223 375.594C691.476 376.863 690.932 378.279 690.592 379.842C690.275 381.383 690.116 382.958 690.116 384.567V385.994C690.116 387.603 690.275 389.189 690.592 390.753C690.909 392.316 691.442 393.732 692.189 395.001C692.96 396.27 693.991 397.29 695.282 398.06C696.596 398.808 698.228 399.182 700.177 399.182ZM743.308 393.914C743.308 393.007 743.104 392.169 742.696 391.398C742.311 390.605 741.506 389.892 740.283 389.257C739.082 388.6 737.269 388.034 734.845 387.558C732.805 387.127 730.959 386.617 729.305 386.028C727.673 385.439 726.28 384.725 725.124 383.887C723.991 383.049 723.119 382.063 722.507 380.93C721.895 379.797 721.589 378.472 721.589 376.953C721.589 375.503 721.906 374.132 722.541 372.841C723.198 371.549 724.116 370.405 725.294 369.408C726.495 368.411 727.934 367.629 729.61 367.063C731.287 366.496 733.157 366.213 735.218 366.213C738.164 366.213 740.679 366.734 742.764 367.777C744.848 368.819 746.446 370.212 747.556 371.957C748.666 373.679 749.222 375.594 749.222 377.701H742.934C742.934 376.682 742.628 375.696 742.016 374.744C741.427 373.77 740.555 372.965 739.399 372.331C738.266 371.697 736.873 371.379 735.218 371.379C733.474 371.379 732.058 371.651 730.97 372.195C729.905 372.716 729.123 373.385 728.625 374.2C728.149 375.016 727.911 375.877 727.911 376.784C727.911 377.463 728.024 378.075 728.251 378.619C728.5 379.14 728.931 379.627 729.542 380.08C730.154 380.511 731.015 380.919 732.126 381.304C733.236 381.689 734.652 382.074 736.374 382.46C739.388 383.139 741.869 383.955 743.817 384.907C745.766 385.858 747.216 387.025 748.168 388.407C749.12 389.79 749.595 391.466 749.595 393.438C749.595 395.047 749.256 396.519 748.576 397.856C747.919 399.193 746.956 400.349 745.687 401.323C744.441 402.275 742.945 403.022 741.2 403.566C739.478 404.087 737.541 404.348 735.388 404.348C732.148 404.348 729.406 403.77 727.163 402.615C724.92 401.459 723.221 399.963 722.065 398.128C720.909 396.293 720.332 394.355 720.332 392.316H726.653C726.744 394.038 727.243 395.409 728.149 396.429C729.055 397.426 730.166 398.139 731.48 398.57C732.794 398.978 734.097 399.182 735.388 399.182C737.11 399.182 738.549 398.955 739.705 398.502C740.883 398.049 741.778 397.426 742.39 396.633C743.002 395.84 743.308 394.933 743.308 393.914Z" fill="#003450"/>
<path d="M205.314 89.3818C179.081 117.646 126.347 181.497 126.347 181.497L0 181.497C0 181.497 66.3859 102.585 99.3111 66.6882C107.609 57.8171 115.105 48.8428 124.741 40.178C135.716 30.069 148.03 20.1663 164.359 11.192C171.043 7.16584 180.37 3.89194 191.395 1.70198C197.06 0.675517 203.205 0.10072 209.461 0.0120906C215.717 -0.0765387 221.954 0.322828 227.8 1.18622C241.452 3.24927 252.695 7.16908 261.528 11.6046C277.322 19.6506 286.958 29.2438 294.186 38.837C319.5 68.2243 331.542 99.0674 329.788 130.024C329.252 144.981 324.702 167.159 318.01 181.6L205.582 181.6C205.582 181.6 212.274 170.254 239.043 138.998C243.058 134.253 247.876 129.508 250.553 124.557C254.511 117.228 256.485 109.761 256.442 102.276C255.639 95.571 254.568 88.6598 248.144 82.3674C245.467 80.0981 242.255 77.6224 235.83 76.694C230.477 75.8688 225.123 77.0035 221.375 78.4476C213.612 81.3359 209.33 85.462 205.314 89.3818Z" fill="#003450"/>
<path d="M205.106 321.035C231.339 292.771 284.073 228.92 284.073 228.92H410.42C410.42 228.92 344.034 307.832 311.109 343.729C302.811 352.6 295.315 361.574 285.679 370.239C274.704 380.348 262.39 390.251 246.061 399.225C239.377 403.251 230.05 406.525 219.025 408.715C213.36 409.741 207.215 410.316 200.959 410.405C194.703 410.494 188.465 410.094 182.62 409.231C168.968 407.168 157.725 403.248 148.892 398.812C133.098 390.766 123.462 381.173 116.234 371.58C90.9202 342.193 78.8782 311.35 80.6321 280.393C81.1675 265.436 85.7181 243.258 92.4102 228.817H204.838C204.838 228.817 198.146 240.163 171.377 271.419C167.362 276.164 162.544 280.909 159.867 285.86C155.909 293.189 153.935 300.656 153.978 308.141C154.781 314.846 155.852 321.757 162.276 328.05C164.953 330.319 168.165 332.795 174.589 333.723C179.943 334.548 185.297 333.414 189.045 331.969C196.807 329.081 201.09 324.955 205.106 321.035Z" fill="#003450"/>
<path d="M527.406 234.689C527.406 230.916 526.814 227.587 525.631 224.702C524.521 221.743 522.524 219.08 519.639 216.713C516.828 214.346 512.907 212.09 507.877 209.944C502.921 207.799 496.633 205.617 489.013 203.398C481.024 201.03 473.812 198.404 467.376 195.519C460.94 192.56 455.429 189.194 450.843 185.422C446.256 181.649 442.742 177.322 440.301 172.439C437.86 167.557 436.639 161.972 436.639 155.684C436.639 149.396 437.934 143.589 440.523 138.263C443.112 132.937 446.811 128.313 451.619 124.393C456.502 120.398 462.309 117.291 469.04 115.072C475.772 112.853 483.28 111.743 491.565 111.743C503.697 111.743 513.98 114.073 522.413 118.734C530.92 123.32 537.393 129.349 541.831 136.821C546.27 144.218 548.489 152.133 548.489 160.566H527.184C527.184 154.5 525.89 149.137 523.301 144.477C520.711 139.743 516.791 136.044 511.539 133.381C506.286 130.644 499.629 129.275 491.565 129.275C483.946 129.275 477.658 130.422 472.702 132.715C467.746 135.008 464.047 138.115 461.606 142.036C459.239 145.956 458.055 150.432 458.055 155.462C458.055 158.865 458.758 161.972 460.163 164.783C461.643 167.52 463.899 170.072 466.932 172.439C470.039 174.806 473.96 176.989 478.694 178.986C483.502 180.983 489.235 182.907 495.893 184.756C505.066 187.345 512.981 190.23 519.639 193.411C526.296 196.592 531.771 200.18 536.061 204.174C540.426 208.095 543.643 212.57 545.715 217.601C547.86 222.557 548.933 228.179 548.933 234.467C548.933 241.051 547.601 247.005 544.938 252.332C542.275 257.658 538.465 262.207 533.509 265.98C528.553 269.753 522.598 272.675 515.644 274.746C508.765 276.743 501.071 277.742 492.564 277.742C485.093 277.742 477.732 276.706 470.483 274.635C463.307 272.564 456.761 269.457 450.843 265.314C444.999 261.172 440.301 256.067 436.75 250.001C433.274 243.862 431.535 236.76 431.535 228.697H452.84C452.84 234.245 453.913 239.016 456.058 243.011C458.203 246.931 461.125 250.186 464.824 252.775C468.596 255.365 472.85 257.288 477.584 258.545C482.393 259.729 487.386 260.321 492.564 260.321C500.036 260.321 506.36 259.285 511.539 257.214C516.717 255.143 520.637 252.184 523.301 248.337C526.038 244.49 527.406 239.941 527.406 234.689ZM603.526 254.218L634.373 155.462H647.91L645.247 175.102L613.845 275.523H600.641L603.526 254.218ZM582.776 155.462L609.074 255.328L610.96 275.523H597.09L562.248 155.462H582.776ZM677.426 254.551L702.504 155.462H722.92L688.079 275.523H674.319L677.426 254.551ZM650.906 155.462L681.088 252.554L684.528 275.523H671.434L639.144 174.88L636.481 155.462H650.906ZM738.566 216.824V214.272C738.566 205.617 739.824 197.591 742.339 190.193C744.854 182.722 748.479 176.249 753.213 170.775C757.947 165.227 763.68 160.936 770.412 157.903C777.144 154.796 784.689 153.243 793.048 153.243C801.481 153.243 809.064 154.796 815.795 157.903C822.601 160.936 828.371 165.227 833.105 170.775C837.914 176.249 841.575 182.722 844.091 190.193C846.606 197.591 847.863 205.617 847.863 214.272V216.824C847.863 225.479 846.606 233.505 844.091 240.903C841.575 248.3 837.914 254.773 833.105 260.321C828.371 265.795 822.638 270.085 815.906 273.192C809.249 276.225 801.703 277.742 793.27 277.742C784.837 277.742 777.255 276.225 770.523 273.192C763.791 270.085 758.021 265.795 753.213 260.321C748.479 254.773 744.854 248.3 742.339 240.903C739.824 233.505 738.566 225.479 738.566 216.824ZM759.094 214.272V216.824C759.094 222.816 759.797 228.475 761.202 233.801C762.608 239.053 764.716 243.714 767.527 247.782C770.412 251.851 774 255.069 778.29 257.436C782.581 259.729 787.574 260.876 793.27 260.876C798.892 260.876 803.812 259.729 808.028 257.436C812.319 255.069 815.869 251.851 818.68 247.782C821.491 243.714 823.6 239.053 825.005 233.801C826.485 228.475 827.224 222.816 827.224 216.824V214.272C827.224 208.354 826.485 202.769 825.005 197.517C823.6 192.19 821.454 187.493 818.569 183.424C815.758 179.282 812.208 176.027 807.917 173.66C803.701 171.293 798.744 170.109 793.048 170.109C787.426 170.109 782.47 171.293 778.179 173.66C773.963 176.027 770.412 179.282 767.527 183.424C764.716 187.493 762.608 192.19 761.202 197.517C759.797 202.769 759.094 208.354 759.094 214.272ZM868.169 216.824V214.272C868.169 205.617 869.427 197.591 871.942 190.193C874.457 182.722 878.082 176.249 882.816 170.775C887.551 165.227 893.284 160.936 900.015 157.903C906.747 154.796 914.292 153.243 922.651 153.243C931.084 153.243 938.667 154.796 945.399 157.903C952.204 160.936 957.974 165.227 962.709 170.775C967.517 176.249 971.179 182.722 973.694 190.193C976.209 197.591 977.466 205.617 977.466 214.272V216.824C977.466 225.479 976.209 233.505 973.694 240.903C971.179 248.3 967.517 254.773 962.709 260.321C957.974 265.795 952.241 270.085 945.51 273.192C938.852 276.225 931.306 277.742 922.873 277.742C914.44 277.742 906.858 276.225 900.126 273.192C893.395 270.085 887.625 265.795 882.816 260.321C878.082 254.773 874.457 248.3 871.942 240.903C869.427 233.505 868.169 225.479 868.169 216.824ZM888.697 214.272V216.824C888.697 222.816 889.4 228.475 890.805 233.801C892.211 239.053 894.319 243.714 897.13 247.782C900.015 251.851 903.603 255.069 907.894 257.436C912.184 259.729 917.177 260.876 922.873 260.876C928.495 260.876 933.415 259.729 937.631 257.436C941.922 255.069 945.473 251.851 948.284 247.782C951.095 243.714 953.203 239.053 954.608 233.801C956.088 228.475 956.828 222.816 956.828 216.824V214.272C956.828 208.354 956.088 202.769 954.608 197.517C953.203 192.19 951.058 187.493 948.173 183.424C945.362 179.282 941.811 176.027 937.52 173.66C933.304 171.293 928.347 170.109 922.651 170.109C917.029 170.109 912.073 171.293 907.783 173.66C903.566 176.027 900.015 179.282 897.13 183.424C894.319 187.493 892.211 192.19 890.805 197.517C889.4 202.769 888.697 208.354 888.697 214.272ZM1076.67 247.782V155.462H1097.31V275.523H1077.66L1076.67 247.782ZM1080.55 222.483L1089.09 222.261C1089.09 230.25 1088.24 237.648 1086.54 244.453C1084.91 251.185 1082.25 257.029 1078.55 261.985C1074.85 266.942 1070.01 270.825 1064.02 273.636C1058.02 276.373 1050.74 277.742 1042.16 277.742C1036.31 277.742 1030.95 276.891 1026.07 275.19C1021.26 273.488 1017.12 270.862 1013.64 267.311C1010.16 263.761 1007.46 259.137 1005.54 253.441C1003.69 247.745 1002.77 240.903 1002.77 232.913V155.462H1023.29V233.135C1023.29 238.535 1023.89 243.011 1025.07 246.562C1026.33 250.038 1027.99 252.812 1030.06 254.884C1032.21 256.881 1034.57 258.287 1037.16 259.1C1039.83 259.914 1042.56 260.321 1045.37 260.321C1054.1 260.321 1061.02 258.656 1066.12 255.328C1071.23 251.925 1074.89 247.375 1077.11 241.679C1079.4 235.909 1080.55 229.51 1080.55 222.483Z" fill="#003450"/>
</svg>
