<svg width="85" height="85" viewBox="0 0 85 85" fill="none" xmlns="http://www.w3.org/2000/svg">
<path d="M41.4354 82.9681C42.1377 82.9681 42.8622 82.9883 43.5624 82.9681C57.2697 82.7657 70.3192 81.2256 72.683 78.9751C73.2295 73.9905 73.8933 71.5781 51.7872 61.1211C48.6422 59.3583 50.3078 52.528 50.3078 52.528C56.9641 47.5049 61.5339 35.87 61.5339 26.5463C61.5339 10.4348 54.2684 2.81511 43.5685 2.0238H41.4394C30.7578 2.81511 23.4943 10.4348 23.4943 26.5463C23.4943 35.87 28.0438 47.5008 34.7042 52.528C34.7042 52.528 36.3637 59.3583 33.2369 61.1211C11.1086 71.5781 11.7724 73.9925 12.3209 78.9751C14.6827 81.2236 27.7281 82.7657 41.4354 82.9681Z" fill="#C4C4C4"/>
</svg>
