<svg width="30" height="31" viewBox="0 0 30 31" fill="none" xmlns="http://www.w3.org/2000/svg">
<g clip-path="url(#clip0)">
<g filter="url(#filter0_f)">
<path d="M0.73793 29.4141L2.74828 22.0788C1.51219 19.9324 0.85336 17.4942 0.860157 15.0016C0.860157 7.19085 7.21734 0.840454 15.0281 0.840454C18.818 0.840454 22.377 2.31432 25.0463 4.9903C27.7222 7.66627 29.1961 11.2253 29.1893 15.0084C29.1893 22.8191 22.832 29.1696 15.0213 29.1696H15.0145C12.6442 29.1696 10.3145 28.5719 8.24297 27.4444L0.73793 29.4141ZM8.59617 24.877L9.02402 25.1352C10.8307 26.2083 12.9022 26.7719 15.0145 26.7787H15.0213C21.5077 26.7787 26.7916 21.5014 26.7916 15.0084C26.7916 11.8637 25.5691 8.90928 23.3482 6.68143C21.1273 4.4537 18.1659 3.2312 15.0213 3.2312C8.5282 3.2312 3.2441 8.5085 3.2441 15.0015C3.2441 17.2226 3.86215 19.3891 5.04398 21.2638L5.32242 21.712L4.13391 26.0521L8.59617 24.877V24.877Z" fill="black" fill-opacity="0.24"/>
</g>
<path d="M1.38058 28.657L3.29894 21.6609C2.11603 19.6088 1.49376 17.2817 1.49461 14.9131C1.49461 7.4676 7.55836 1.41064 14.997 1.41064C18.6124 1.41064 21.9998 2.81924 24.5487 5.36807C27.0975 7.91701 28.4995 11.3111 28.4995 14.9198C28.4995 22.3652 22.4358 28.4221 14.9971 28.4221H14.9904C12.7298 28.4221 10.5096 27.852 8.53758 26.7788L1.38058 28.6571V28.657Z" fill="url(#paint0_linear)"/>
<path d="M0.890976 29.1465L2.87637 21.9023C1.65562 19.7827 1.00488 17.3746 1.01168 14.913C1.01168 7.19925 7.29 0.927612 15.0039 0.927612C18.7466 0.927612 22.2613 2.38308 24.8975 5.02589C27.5402 7.66871 28.9958 11.1835 28.9891 14.9197C28.9891 22.6334 22.7108 28.9051 14.997 28.9051H14.9904C12.654 28.9042 10.3549 28.3184 8.30285 27.2013L0.890976 29.1466V29.1465ZM8.6516 24.6658L9.07418 24.9207C10.8585 25.9805 12.9042 26.5373 14.9904 26.544H14.9971C21.4028 26.544 26.6214 21.3322 26.6214 14.9197C26.6214 11.8141 25.414 8.89624 23.2206 6.69617C21.0272 4.49609 18.1027 3.28871 14.9971 3.28871C8.58457 3.28871 3.36609 8.5005 3.36609 14.913C3.36609 17.1064 3.97641 19.2461 5.14359 21.0973L5.41863 21.5401L4.24476 25.8262L8.6516 24.6658V24.6658Z" fill="white"/>
<path d="M11.5024 9.05733C11.2407 8.47374 10.9657 8.46026 10.7176 8.45358C10.5164 8.4469 10.2817 8.4469 10.0468 8.4469C9.81211 8.4469 9.43641 8.53409 9.11449 8.88284C8.79246 9.2317 7.89363 10.0769 7.89363 11.8008C7.89363 13.5178 9.14801 15.1813 9.32238 15.416C9.49676 15.6509 11.7438 19.2931 15.2921 20.695C18.2435 21.8622 18.8473 21.6273 19.4844 21.567C20.1284 21.5066 21.5504 20.7218 21.8455 19.9035C22.1339 19.0852 22.1339 18.3876 22.0467 18.24C21.9595 18.0924 21.7248 18.0053 21.3759 17.8308C21.0272 17.6564 19.31 16.8113 18.9881 16.6906C18.6661 16.5699 18.4314 16.5162 18.2033 16.865C17.9685 17.2137 17.2978 17.9985 17.0965 18.2333C16.8953 18.4681 16.6874 18.4949 16.3385 18.3205C15.9898 18.1462 14.8629 17.7771 13.5281 16.5832C12.4884 15.6576 11.7841 14.5105 11.5828 14.1618C11.3816 13.813 11.5628 13.6251 11.7371 13.4508C11.8914 13.2965 12.0859 13.0416 12.2604 12.8404C12.4348 12.6392 12.4951 12.4916 12.6091 12.2568C12.7232 12.0221 12.6695 11.8208 12.5823 11.6465C12.4951 11.472 11.811 9.74815 11.5024 9.05733V9.05733Z" fill="white"/>
</g>
<defs>
<filter id="filter0_f" x="-5.26207" y="-5.15955" width="40.4514" height="40.5736" filterUnits="userSpaceOnUse" color-interpolation-filters="sRGB">
<feFlood flood-opacity="0" result="BackgroundImageFix"/>
<feBlend mode="normal" in="SourceGraphic" in2="BackgroundImageFix" result="shape"/>
<feGaussianBlur stdDeviation="3" result="effect1_foregroundBlur"/>
</filter>
<linearGradient id="paint0_linear" x1="14.9395" y1="28.6552" x2="14.9395" y2="1.40901" gradientUnits="userSpaceOnUse">
<stop stop-color="#20B038"/>
<stop offset="1" stop-color="#60D66A"/>
</linearGradient>
<clipPath id="clip0">
<rect width="30" height="30.1172" fill="white"/>
</clipPath>
</defs>
</svg>
